<?xml version="1.0" encoding="utf-8"?>
<!-- Generator: Adobe Illustrator 15.0.0, SVG Export Plug-In . SVG Version: 6.00 Build 0)  -->
<!DOCTYPE svg PUBLIC "-//W3C//DTD SVG 1.1//EN" "http://www.w3.org/Graphics/SVG/1.1/DTD/svg11.dtd">
<svg version="1.1" id="Calque_1" xmlns="http://www.w3.org/2000/svg" xmlns:xlink="http://www.w3.org/1999/xlink" x="0px" y="0px"
	 width="300px" height="115px" viewBox="1603 278 300 115" enable-background="new 1603 278 300 115" xml:space="preserve">
<g>
	<g>
		<path id="SVGID_1_" fill="#FFFFFF" d="M1608.57,303.96c-4.57,4.57-4.57,11.84,0,16.411c3.115,3.116,7.271,4.155,11.217,3.116
			c2.493-0.208,6.232,0,8.31,1.87c2.077,2.077,2.077,5.816,1.87,8.309c-1.039,3.739,0,8.102,3.116,11.01
			c4.569,4.57,11.84,4.57,16.41,0c4.57-4.57,4.57-11.841,0-16.411c-2.285-2.285-5.401-3.531-8.517-3.324l0,0c0,0,0,0-0.208,0
			c-0.831,0-1.454,0.208-2.077,0.208c-2.493,0.208-6.439,0.208-8.518-1.87c-2.077-2.077-2.077-6.024-1.869-8.517
			c0.208-0.623,0.208-1.454,0.208-2.077c0-0.208,0-0.208,0-0.208l0,0c0-3.116-1.039-6.024-3.324-8.517
			c-2.285-2.285-5.193-3.324-8.31-3.324C1613.764,300.636,1610.855,301.675,1608.57,303.96"/>
	</g>
	<g>
		<defs>
			<path id="SVGID_2_" d="M1608.57,303.96c-4.57,4.57-4.57,11.84,0,16.411c3.115,3.116,7.271,4.155,11.217,3.116
				c2.493-0.208,6.232,0,8.31,1.87c2.077,2.077,2.077,5.816,1.87,8.309c-1.039,3.739,0,8.102,3.116,11.01
				c4.569,4.57,11.84,4.57,16.41,0c4.57-4.57,4.57-11.841,0-16.411c-2.285-2.285-5.401-3.531-8.517-3.324l0,0c0,0,0,0-0.208,0
				c-0.831,0-1.454,0.208-2.077,0.208c-2.493,0.208-6.439,0.208-8.518-1.87c-2.077-2.077-2.077-6.024-1.869-8.517
				c0.208-0.623,0.208-1.454,0.208-2.077c0-0.208,0-0.208,0-0.208l0,0c0-3.116-1.039-6.024-3.324-8.517
				c-2.285-2.285-5.193-3.324-8.31-3.324C1613.764,300.636,1610.855,301.675,1608.57,303.96"/>
		</defs>
		<clipPath id="SVGID_3_">
			<use xlink:href="#SVGID_2_"  overflow="visible"/>
		</clipPath>
		<rect x="1604" y="300.636" clip-path="url(#SVGID_3_)" fill="#FFFFFF" width="49.855" height="48.817"/>
	</g>
</g>
<path fill="#FFFFFF" d="M1715.761,358.594v-19.112c0-1.454,4.154-1.454,4.154,0v19.112c0,3.947,0.831,4.985,3.116,4.985
	c2.492,0,4.985-1.662,4.985-1.662c-0.623-3.739-0.208-1.869-0.208-22.435c0-1.662,4.154-1.662,4.154-0.208v19.111
	c0,2.701,0,4.986,2.701,4.986c1.87,0,5.193-1.455,5.193-1.455V339.69c0-1.454,4.154-1.454,4.154,0v24.097
	c0,2.285-7.478,4.154-9.348,4.154c-2.285,0-4.154-0.831-5.193-1.662c-1.662,0.623-4.985,1.662-7.062,1.662
	C1716.176,367.941,1715.761,363.372,1715.761,358.594"/>
<path fill="#FFFFFF" d="M1768.316,365.449c-1.453,1.454-6.023,2.285-8.309,2.285c-1.246,0-2.493-0.208-3.739-0.623
	c-1.87-0.831-5.609-2.909-5.609-8.517v-10.802c0-5.609,3.947-7.686,5.609-8.517c3.739-1.662,9.14-0.416,11.841,1.87
	c1.246,1.039-0.416,3.947-1.87,2.908c-1.662-1.247-6.231-1.87-8.102-1.039c-1.454,0.623-3.116,2.285-3.116,4.57v1.87h8.933
	c1.454,0,1.454,3.947,0,4.155h-8.933v4.778c0,2.493,1.662,3.947,3.116,4.57c2.077,0.831,6.855,0.208,8.518-1.039
	C1767.901,361.294,1769.771,364.202,1768.316,365.449"/>
<path fill="#FFFFFF" d="M1775.38,339.69c0-1.454,4.154-1.454,4.154,0v18.904c0,2.493,1.662,4.154,3.116,4.778
	c1.87,0.831,6.647,0,8.517-1.039c1.662-1.039,3.324,2.285,1.87,3.323c-1.662,1.247-6.024,2.285-8.31,2.285
	c-4.985,0-9.14-3.947-9.348-9.348V339.69z"/>
<path fill="#FFFFFF" d="M1802.801,367.318c-1.87-0.831-5.609-2.908-5.609-8.517v-10.802c0-5.608,3.947-7.686,5.609-8.517
	c3.739-1.662,9.348-0.415,11.841,1.87c1.039,1.039-0.831,3.947-1.87,2.908c-1.454-1.454-6.231-1.869-8.102-1.039
	c-1.454,0.624-3.115,2.285-3.115,4.57v11.01c0,2.493,1.661,3.947,3.115,4.57c2.078,0.831,6.855,0,8.518-1.039
	c1.454-1.039,2.492,2.493,1.869,3.323c-1.454,1.455-6.023,2.285-8.309,2.285C1805.293,367.941,1804.047,367.734,1802.801,367.318"/>
<path fill="#FFFFFF" d="M1819.835,359.424v-11.841c0-3.116,1.246-8.517,9.971-8.517c4.57,0,10.595,1.454,10.595,8.517v11.841
	c0,2.493-1.454,8.31-10.595,8.31C1823.781,367.734,1819.835,365.241,1819.835,359.424 M1835.83,359.632v-12.256
	c-0.415-4.778-3.116-4.57-6.024-4.57c-3.531,0-5.608,0.831-5.608,4.57v12.256c0.208,3.947,2.285,4.362,5.608,4.362
	C1833.338,363.995,1835.83,363.372,1835.83,359.632"/>
<path fill="#FFFFFF" d="M1875.3,347.999v19.112c0,1.454-4.155,1.454-4.155,0v-19.112c0-3.947-0.83-4.985-3.115-4.985
	c-1.039,0-5.193,1.039-5.193,1.039c0.207,1.247,0.207,2.493,0.207,3.947v19.112c0,1.246-4.154,1.246-4.154,0v-19.112
	c0-2.7,0-4.985-2.701-4.985c-1.038,0-5.193,1.039-5.193,1.039v23.059c0,1.454-4.154,1.454-4.154,0v-24.513
	c0-0.416,0.208-0.831,0.623-1.039c1.662-0.831,6.647-2.908,8.725-2.908c2.285,0,4.155,0.831,5.193,1.662
	c1.662-0.623,4.986-1.662,7.063-1.662C1874.676,338.651,1875.3,343.221,1875.3,347.999"/>
<path fill="#FFFFFF" d="M1899.604,365.449c-1.454,1.454-6.024,2.285-8.31,2.285c-1.246,0-2.492-0.208-3.739-0.623
	c-1.869-0.831-5.608-2.909-5.608-8.517v-10.802c0-5.609,3.946-7.686,5.608-8.517c3.739-1.662,9.141-0.416,11.841,1.87
	c1.246,1.039-0.415,3.947-1.869,2.908c-1.662-1.247-6.232-1.87-8.102-1.039c-1.455,0.623-3.116,2.285-3.116,4.57v1.87h8.933
	c1.454,0,1.454,3.947,0,4.155h-8.933v4.778c0,2.493,1.661,3.947,3.116,4.57c2.077,0.831,6.855,0.208,8.517-1.039
	C1898.981,361.294,1900.851,364.202,1899.604,365.449"/>
<path fill="#FFFFFF" d="M1725.316,376.874h-8.933c-0.415,0-0.623,0.208-0.623,0.623c0,0.416,0.208,0.624,0.623,0.624h3.946v11.84
	c0,0.416,0.208,0.624,0.624,0.624c0.415,0,0.623-0.208,0.623-0.624v-11.84h3.739c0.415,0,0.623-0.208,0.623-0.624
	C1725.939,377.29,1725.731,376.874,1725.316,376.874"/>
<path fill="#FFFFFF" d="M1734.664,376.874c-3.739,0-6.647,3.116-6.647,7.063s2.908,7.063,6.647,7.063s6.647-3.116,6.647-7.063
	C1741.104,379.782,1738.195,376.874,1734.664,376.874 M1734.664,389.338c-2.908,0-5.401-2.493-5.401-5.608
	c0-3.116,2.285-5.609,5.401-5.609c2.908,0,5.193,2.493,5.193,5.609C1739.857,386.845,1737.572,389.338,1734.664,389.338"/>
<path fill="#FFFFFF" d="M1755.021,376.874c-0.415,0-0.623,0.208-0.623,0.623v7.479c0,2.285-1.869,4.362-4.362,4.362
	c-2.285,0-4.362-1.869-4.362-4.362v-7.479c0-0.415-0.207-0.623-0.623-0.623c-0.415,0-0.623,0.208-0.623,0.623v7.479
	c0,3.116,2.492,5.609,5.608,5.609s5.609-2.493,5.609-5.609v-7.479C1755.646,377.29,1755.438,376.874,1755.021,376.874"/>
<path fill="#FFFFFF" d="M1767.07,378.121c1.246,0,2.493,0.416,3.739,1.247c0.208,0.208,0.415,0.208,0.415,0.208
	c0.208,0,0.416-0.208,0.416-0.208c0.208-0.208,0.208-0.208,0.208-0.416c0-0.208,0-0.416-0.208-0.416
	c-1.246-1.039-2.908-1.454-4.362-1.454l0,0c-3.947,0-7.063,3.116-7.063,7.062c0,3.739,3.116,6.855,7.063,6.855
	c1.662,0,3.116-0.623,4.362-1.454c0.208-0.208,0.208-0.208,0.208-0.416s0-0.416-0.208-0.416c0-0.208-0.208-0.208-0.416-0.208
	c-0.207,0-0.415,0-0.623,0.208c-1.038,0.831-2.285,1.246-3.531,1.246c-3.323,0-5.816-2.492-5.816-5.608
	C1761.254,380.613,1763.747,378.121,1767.07,378.121"/>
<path fill="#FFFFFF" d="M1784.312,376.874c-0.416,0-0.623,0.208-0.623,0.623v5.609h-6.647v-5.609c0-0.415-0.208-0.623-0.623-0.623
	c-0.416,0-0.624,0.208-0.624,0.623v12.464c0,0.416,0.208,0.624,0.624,0.624c0.415,0,0.623-0.208,0.623-0.624v-5.608h6.439v5.608
	c0,0.416,0.208,0.624,0.623,0.624c0.416,0,0.623-0.208,0.623-0.624v-12.464C1784.936,377.29,1784.521,376.874,1784.312,376.874"/>
<path fill="#FFFFFF" d="M1804.255,384.145c-0.831-0.623-2.077-1.039-3.531-1.246c-1.247-0.208-2.285-0.623-2.908-1.039
	c-0.624-0.416-0.831-0.831-0.831-1.454c0-0.624,0.415-1.247,1.038-1.662c0.624-0.416,1.662-0.831,2.701-0.831
	c1.454,0,2.7,0.831,3.531,1.454c0.208,0,0.208,0.208,0.415,0c0.208,0,0.208-0.208,0.416-0.208c0.207-0.208,0.207-0.623-0.208-0.831
	c-1.038-0.623-2.493-1.662-4.154-1.662c-1.247,0-2.493,0.416-3.324,1.039c-1.038,0.623-1.454,1.662-1.454,2.701
	s0.416,1.87,1.454,2.493c0.831,0.623,1.87,0.831,3.324,1.246c1.246,0.208,2.284,0.624,3.116,1.039
	c0.623,0.415,1.038,1.039,1.038,1.662c0,0.624-0.415,1.454-1.038,1.87c-0.832,0.623-1.87,0.831-2.909,0.831
	c-2.077,0-3.739-1.247-4.154-1.662c-0.208-0.208-0.208-0.208-0.415-0.208c-0.208,0-0.208,0-0.416,0.208l0,0
	c-0.207,0.208-0.207,0.624,0,0.831c0.831,0.831,2.701,1.87,4.985,1.87c1.247,0,2.493-0.416,3.532-1.039
	c1.038-0.831,1.661-1.662,1.661-2.908C1805.709,385.807,1805.086,384.768,1804.255,384.145"/>
<path fill="#FFFFFF" d="M1815.888,378.121c1.247,0,2.493,0.416,3.739,1.247c0.208,0.208,0.416,0.208,0.416,0.208
	c0.207,0,0.415-0.208,0.415-0.208c0.208-0.208,0.208-0.208,0.208-0.416c0-0.208,0-0.416-0.208-0.416
	c-1.246-1.039-2.908-1.454-4.362-1.454l0,0c-3.947,0-7.062,3.116-7.062,7.062c0,3.739,3.115,6.855,7.062,6.855
	c1.662,0,3.116-0.623,4.362-1.454c0.208-0.208,0.208-0.208,0.208-0.416s0-0.416-0.208-0.416c0-0.208-0.208-0.208-0.415-0.208
	c-0.208,0-0.416,0-0.624,0.208c-1.038,0.831-2.284,1.246-3.531,1.246c-3.323,0-5.816-2.492-5.816-5.608
	C1809.863,380.613,1812.564,378.121,1815.888,378.121"/>
<path fill="#FFFFFF" d="M1832.714,389.13c0,0,0,0,0-0.208c0-0.208-0.207-0.624-0.207-1.454c0-1.87-1.247-2.701-1.87-3.116
	c1.246-0.623,2.077-2.077,2.077-3.531c0-2.285-1.869-3.947-3.946-3.947h-3.739l0,0c-0.416,0-0.624,0.208-0.624,0.623v12.464
	c0,0.416,0.208,0.624,0.624,0.624c0.415,0,0.623-0.208,0.623-0.624v-5.193h3.116l0,0c0.208,0,0.831,0.208,1.454,0.623
	s1.038,1.039,1.038,1.87c0,1.039,0.208,1.87,0.416,2.285c0.207,0.415,0.623,0.623,1.038,0.623h0.208l0,0
	c0.416-0.208,0.416-0.416,0.416-0.831C1833.13,389.338,1832.922,389.338,1832.714,389.13 M1828.768,383.729h-3.324v-5.401h3.116
	c1.454,0,2.7,1.247,2.7,2.701C1831.468,382.483,1830.222,383.729,1828.768,383.729"/>
<path fill="#FFFFFF" d="M1844.555,378.328c0.416,0,0.623-0.208,0.623-0.623s-0.207-0.623-0.623-0.623h-6.854
	c-0.416,0-0.624,0.208-0.624,0.623v12.464c0,0.416,0.208,0.624,0.624,0.624l0,0h6.854c0.416,0,0.623-0.208,0.623-0.624
	s-0.207-0.623-0.623-0.623h-6.231v-4.985h5.4c0.416,0,0.624-0.208,0.624-0.624s-0.208-0.623-0.624-0.623h-5.4v-4.986H1844.555z"/>
<path fill="#FFFFFF" d="M1856.396,378.328c0.415,0,0.623-0.208,0.623-0.623s-0.208-0.623-0.623-0.623h-6.855
	c-0.416,0-0.623,0.208-0.623,0.623v12.464c0,0.416,0.207,0.624,0.623,0.624l0,0h6.855c0.415,0,0.623-0.208,0.623-0.624
	s-0.208-0.623-0.623-0.623h-6.232v-4.985h5.4c0.416,0,0.623-0.208,0.623-0.624s-0.207-0.623-0.623-0.623h-5.4v-4.986H1856.396z"/>
<path fill="#FFFFFF" d="M1870.314,377.082c-0.416,0-0.623,0.208-0.623,0.623v10.387l-7.895-10.802
	c-0.207-0.208-0.623-0.416-0.831-0.208c-0.208,0.208-0.208,0.415-0.208,0.623v12.256c0,0.416,0.208,0.624,0.623,0.624
	c0.416,0,0.624-0.208,0.624-0.624v-10.386l7.687,10.802c0,0,0,0,0,0.208c0.207,0.208,0.207,0.208,0.415,0.208
	c0.415,0,0.623-0.208,0.623-0.624v-12.256C1870.938,377.29,1870.729,377.082,1870.314,377.082"/>
<path fill="#FFFFFF" d="M1736.949,285.056c-3.947-3.947-9.141-6.024-14.334-6.024s-10.387,2.077-14.333,6.024
	c-5.401,5.401-7.271,13.295-5.193,20.15c0.415,3.947,0.623,11.01-2.7,14.333c-4.986,4.986-14.334,5.194-14.334,5.194l0,0
	c-0.208,0-0.208,0-0.416,0l0,0c0,0,0,0-0.207,0c-0.831,0-1.455,0.208-2.078,0.208c-2.492,0.208-6.439,0.208-8.517-1.87
	s-2.077-6.024-1.869-8.517c0.207-0.624,0.207-1.454,0.207-2.078c0-0.208,0-0.208,0-0.208l0,0c0-3.116-1.038-6.024-3.323-8.517
	c-4.57-4.57-11.841-4.57-16.411,0s-4.57,11.841,0,16.411c2.908,2.908,7.271,3.947,11.01,3.116c2.493-0.208,6.231,0,8.31,1.87
	c2.077,2.077,2.077,5.817,1.869,8.31c-1.038,3.739,0,8.102,3.116,11.01c4.57,4.57,11.841,4.57,16.411,0
	c2.285-2.285,3.531-5.401,3.323-8.517c0-1.039,0.416-9.556,5.193-14.333c3.532-3.532,10.18-3.324,14.334-2.701
	c7.063,2.078,14.956,0.416,20.358-4.986C1745.051,306.037,1745.051,293.158,1736.949,285.056z M1719.915,294.612h-2.908v11.841
	c0,0.416-0.623,0.623-1.246,0.623c-0.624,0-1.247-0.208-1.247-0.623v-11.841h-2.908c-0.415,0-0.623-0.624-0.623-1.247
	c0-0.208,0-0.623,0.208-0.831c0.207-0.208,0.415-0.415,0.623-0.415h8.102c0.623,0,0.831,0.623,0.831,1.246
	S1720.33,294.612,1719.915,294.612z M1728.848,307.076c-1.869,0-3.324-1.039-4.362-1.87l0,0c-0.415-0.415-0.624-0.831-0.208-1.454
	c0.416-0.416,1.039-0.831,1.454-0.623c0,0,0.208,0.208,0.416,0.208c0.831,0.624,2.077,1.247,3.115,1.247
	c2.077,0,2.077-1.247,2.077-1.454c0-0.831-1.246-1.662-2.7-2.493c-2.077-1.246-4.154-2.493-4.154-4.777
	c0-2.909,2.493-3.947,4.57-3.947c2.492,0,3.531,0.831,4.154,1.662c0.415,0.415,0.208,1.246-0.208,1.662
	c-0.415,0.416-1.038,0.416-1.454,0.208c-0.831-0.831-1.662-1.039-2.7-1.039c-0.623,0-2.285,0.208-2.285,1.455
	c0,0.831,1.454,1.662,2.7,2.493c2.078,1.246,4.362,2.701,4.362,4.778C1733.833,306.037,1731.133,307.076,1728.848,307.076z"/>
</svg>
